<svg width="800" height="800" viewBox="0 0 800 800" fill="none" xmlns="http://www.w3.org/2000/svg">
<path d="M415.625 680.937V665.312H753.125V378.906H306.406L185.156 665L384.375 665.312V680.937H415.625Z" fill="white"/>
<path d="M46.875 227.031H140.625V242.656H753.125V347.656H285.781L151.25 665H46.875V227.031Z" fill="white"/>
<path d="M410.781 211.406L362.656 103.438H15.625V696.25L384.375 696.719V665.469L185.156 665.156L306.406 379.063H753.125V665.469H415.625V696.719H784.375V211.406H410.781ZM753.125 347.656H285.781L151.25 664.844H46.875V134.688H342.344L376.562 211.406H140.625V242.656H753.125V347.656Z" fill="#BEE1FF"/>
<path d="M109.375 211.406H78.125V242.656H109.375V211.406Z" fill="#BEE1FF"/>
</svg>
