<svg width="512" height="512" viewBox="0 0 512 512" fill="none" xmlns="http://www.w3.org/2000/svg">
<path d="M474.436 52.411C471.539 55.964 468.962 58.1616 464.843 60.1769C464.12 60.5323 463.397 60.8877 462.652 61.2539C462.1 61.5223 461.548 61.7907 460.978 62.0673C460.973 62.9331 460.967 63.799 460.961 64.6911C460.903 72.8572 460.831 81.023 460.743 89.1888C460.698 93.3868 460.659 97.5847 460.632 101.783C460.606 105.835 460.566 109.888 460.515 113.94C460.499 115.485 460.487 117.03 460.481 118.575C460.471 120.742 460.443 122.907 460.411 125.074C460.4 126.306 460.389 127.539 460.377 128.809C459.945 132.338 459.102 134.243 456.978 137.067C454.014 138.549 451.358 138.186 448.05 138.181C447.338 138.181 446.626 138.181 445.892 138.181C443.533 138.181 441.174 138.173 438.814 138.165C437.181 138.163 435.547 138.162 433.913 138.161C429.609 138.157 425.305 138.147 421.001 138.136C415.839 138.124 410.677 138.119 405.515 138.113C397.67 138.104 389.824 138.085 381.978 138.067C381.978 156.547 381.978 175.027 381.978 194.067C397.595 193.909 397.595 193.909 413.212 193.707C415.171 193.695 417.129 193.685 419.088 193.677C420.104 193.656 421.12 193.636 422.166 193.615C429.349 193.611 429.349 193.611 432.604 195.971C434.045 198.169 434.819 199.443 434.978 202.067C433.898 205.848 433.335 206.829 429.978 209.067C427.795 209.308 427.795 209.308 425.232 209.294C423.791 209.294 423.791 209.294 422.32 209.294C421.286 209.284 420.251 209.273 419.186 209.263C418.124 209.26 417.063 209.257 415.97 209.254C412.577 209.243 409.184 209.218 405.791 209.192C403.492 209.182 401.193 209.173 398.895 209.165C393.256 209.145 387.617 209.105 381.978 209.067C381.978 221.937 381.978 234.807 381.978 248.067C387.046 248.032 392.113 247.998 397.334 247.962C400.547 247.946 403.76 247.932 406.973 247.921C412.071 247.903 417.169 247.882 422.267 247.841C426.378 247.808 430.488 247.79 434.599 247.783C436.166 247.777 437.734 247.766 439.301 247.75C441.499 247.728 443.696 247.725 445.893 247.727C447.769 247.717 447.769 247.717 449.682 247.707C453.276 248.1 455.133 248.873 457.978 251.067C459.478 253.942 459.478 253.942 459.978 257.067C458.824 259.89 457.839 261.491 455.297 263.194C452.124 264.389 449.396 264.306 446.007 264.294C445.314 264.295 444.621 264.295 443.907 264.295C441.623 264.294 439.34 264.278 437.057 264.263C435.47 264.259 433.884 264.256 432.298 264.254C428.129 264.246 423.96 264.227 419.791 264.205C414.786 264.181 409.78 264.171 404.775 264.16C397.176 264.14 389.578 264.102 381.978 264.067C381.978 276.937 381.978 289.807 381.978 303.067C385.397 303.032 388.816 302.998 392.338 302.962C395.647 302.938 398.957 302.92 402.267 302.902C404.567 302.887 406.868 302.867 409.169 302.841C412.475 302.805 415.781 302.788 419.088 302.774C420.117 302.759 421.146 302.743 422.207 302.727C423.168 302.727 424.128 302.727 425.118 302.727C426.384 302.717 426.384 302.717 427.675 302.707C430.522 303.152 431.879 304.126 433.978 306.067C435.38 309.523 435.077 310.822 433.666 314.317C431.978 317.067 431.978 317.067 429.978 318.067C428.436 318.157 426.89 318.185 425.345 318.181C424.371 318.181 423.397 318.181 422.393 318.18C421.367 318.175 420.34 318.17 419.283 318.165C418.342 318.164 417.4 318.163 416.43 318.162C412.904 318.157 409.379 318.143 405.853 318.13C397.975 318.109 390.096 318.089 381.978 318.067C381.978 336.547 381.978 355.027 381.978 374.067C387.202 374.032 392.425 373.998 397.807 373.962C401.115 373.946 404.424 373.932 407.732 373.921C412.984 373.903 418.236 373.882 423.488 373.841C427.722 373.808 431.956 373.79 436.19 373.783C437.805 373.777 439.421 373.766 441.036 373.75C443.299 373.728 445.561 373.725 447.823 373.727C449.755 373.717 449.755 373.717 451.726 373.706C455.192 374.091 456.574 374.587 458.978 377.067C460.123 380.501 460.138 383.211 460.184 386.834C460.194 387.517 460.204 388.2 460.214 388.904C460.245 391.16 460.27 393.416 460.295 395.673C460.315 397.238 460.336 398.803 460.358 400.368C460.413 404.486 460.462 408.604 460.511 412.723C460.561 416.925 460.617 421.128 460.672 425.331C460.779 433.576 460.881 441.822 460.978 450.067C461.59 450.392 462.201 450.717 462.831 451.051C463.636 451.487 464.442 451.923 465.271 452.372C466.467 453.014 466.467 453.014 467.686 453.668C474.944 458.098 477.879 465.083 479.978 473.067C480.908 480.635 478.608 488.146 474.291 494.38C470.46 499.111 465.727 502.151 459.978 504.067C451.426 504.693 443.35 505.013 435.978 500.067C433.166 497.63 433.166 497.63 430.978 495.067C429.896 493.861 429.896 493.861 428.791 492.63C423.833 485.62 424.159 477.309 424.978 469.067C426.983 462.221 430.879 456.818 436.978 453.067C440.443 451.582 440.443 451.582 443.978 450.067C444.473 419.872 444.473 419.872 444.978 389.067C424.188 389.067 403.398 389.067 381.978 389.067C381.978 393.687 381.978 398.307 381.978 403.067C379.757 413.434 374.691 423.642 365.978 430.067C357.58 434.857 350.593 438.182 340.776 438.214C340.049 438.218 339.323 438.222 338.574 438.226C336.138 438.237 333.703 438.24 331.267 438.244C329.521 438.251 327.775 438.257 326.029 438.264C320.292 438.285 314.555 438.296 308.818 438.306C306.841 438.31 304.864 438.314 302.887 438.318C293.595 438.337 284.303 438.351 275.01 438.359C264.298 438.369 253.585 438.396 242.872 438.436C234.584 438.466 226.296 438.481 218.008 438.484C213.061 438.487 208.115 438.496 203.169 438.521C198.511 438.544 193.853 438.548 189.195 438.538C187.492 438.538 185.789 438.544 184.086 438.558C169.514 438.669 157.883 436.166 146.818 426.102C136.387 415.32 134.978 403.759 134.978 389.067C112.538 389.067 90.0985 389.067 66.9785 389.067C66.9785 409.197 66.9785 429.327 66.9785 450.067C68.6285 450.397 70.2785 450.727 71.9785 451.067C78.2378 454.751 83.7268 459.86 86.4316 466.727C88.4303 475.279 88.0994 484.284 83.5918 491.915C79.074 497.942 73.4928 502.611 65.9785 504.067C57.1068 505.05 49.1874 504.016 41.9433 498.524C35.4588 492.508 32.4131 485.609 31.7285 476.88C32.3367 467.605 35.2439 462.03 41.5293 455.196C44.548 452.572 47.8443 450.067 51.9785 450.067C51.9685 448.768 51.9685 448.768 51.9583 447.443C51.8981 439.278 51.8525 431.112 51.8231 422.946C51.8074 418.748 51.7862 414.55 51.7522 410.352C51.7195 406.299 51.7016 402.247 51.6938 398.194C51.6883 396.649 51.6775 395.105 51.6613 393.56C51.6395 391.393 51.6365 389.227 51.6379 387.061C51.6312 385.828 51.6246 384.596 51.6177 383.326C52.0108 379.775 52.8411 377.9 54.9785 375.067C57.9835 373.565 61.0711 373.937 64.3657 373.954C65.1268 373.954 65.8878 373.953 66.672 373.953C69.1934 373.954 71.7148 373.962 74.2363 373.97C75.9822 373.971 77.7281 373.973 79.4741 373.974C84.0739 373.978 88.6738 373.988 93.2737 373.999C98.7903 374.011 104.307 374.015 109.824 374.021C118.209 374.031 126.593 374.05 134.978 374.067C134.978 355.587 134.978 337.107 134.978 318.067C117.716 318.226 117.716 318.226 100.454 318.428C98.2903 318.439 96.1266 318.449 93.9629 318.458C92.839 318.478 91.7151 318.499 90.5571 318.52C88.9438 318.521 88.9438 318.521 87.2978 318.521C86.3652 318.53 85.4325 318.539 84.4716 318.548C81.2219 317.921 80.0509 316.585 77.9785 314.067C76.7634 311.377 76.9097 310.308 77.7285 307.442C78.9785 305.067 78.9785 305.067 81.9785 303.067C84.3513 302.827 84.3513 302.827 87.1843 302.84C88.2452 302.84 89.306 302.841 90.399 302.841C92.1148 302.856 92.1148 302.856 93.8652 302.872C95.6234 302.876 95.6234 302.876 97.4172 302.881C101.167 302.892 104.916 302.917 108.666 302.942C111.206 302.952 113.745 302.961 116.285 302.97C122.516 302.99 128.747 303.029 134.978 303.067C134.978 290.197 134.978 277.327 134.978 264.067C129.55 264.102 124.122 264.137 118.529 264.173C115.089 264.188 111.648 264.203 108.207 264.214C102.747 264.232 97.2866 264.253 91.8264 264.294C87.4238 264.326 83.0214 264.344 78.6187 264.352C76.9398 264.357 75.2609 264.368 73.582 264.384C71.2287 264.406 68.8761 264.409 66.5227 264.408C65.4837 264.424 65.4837 264.424 64.4236 264.441C60.1097 264.413 57.3926 263.735 53.9785 261.067C52.4785 258.192 52.4785 258.192 51.9785 255.067C53.1271 252.259 54.1165 250.655 56.6313 248.941C59.8827 247.731 62.9888 247.805 66.4091 247.84C67.151 247.84 67.8929 247.84 68.6572 247.839C71.103 247.841 73.5484 247.856 75.9941 247.872C77.6923 247.876 79.3906 247.879 81.0888 247.881C85.5539 247.888 90.0188 247.908 94.4839 247.93C99.8436 247.954 105.203 247.963 110.563 247.975C118.702 247.994 126.84 248.033 134.978 248.067C134.978 235.197 134.978 222.327 134.978 209.067C131.199 209.102 127.419 209.137 123.525 209.173C119.868 209.196 116.211 209.214 112.554 209.232C110.011 209.247 107.468 209.268 104.924 209.294C101.27 209.33 97.6169 209.347 93.9629 209.36C92.8242 209.376 91.6855 209.391 90.5124 209.407C88.9212 209.408 88.9212 209.408 87.2978 209.408C86.3652 209.415 85.4325 209.421 84.4716 209.428C81.4986 208.998 80.1504 208.11 77.9785 206.067C76.5775 202.611 76.8795 201.312 78.291 197.817C79.9785 195.067 79.9785 195.067 81.9785 194.067C83.6739 193.977 85.3729 193.95 87.0708 193.954C88.1466 193.954 89.2224 193.954 90.3308 193.954C91.4649 193.959 92.599 193.964 93.7675 193.97C94.8074 193.971 95.8473 193.972 96.9187 193.973C100.814 193.978 104.709 193.992 108.603 194.005C117.307 194.025 126.011 194.046 134.978 194.067C134.978 175.587 134.978 157.107 134.978 138.067C129.394 138.102 123.81 138.137 118.057 138.173C114.52 138.188 110.984 138.203 107.447 138.214C101.833 138.232 96.2193 138.253 90.6054 138.294C86.0797 138.326 81.5541 138.344 77.0282 138.352C75.301 138.357 73.5738 138.368 71.8467 138.384C69.4285 138.406 67.011 138.409 64.5927 138.408C63.8778 138.419 63.1628 138.429 62.4261 138.441C59.3662 138.421 57.2662 138.226 54.5651 136.733C51.3936 133.403 51.828 129.664 51.7732 125.301C51.7633 124.618 51.7534 123.935 51.7432 123.231C51.7116 120.974 51.6868 118.718 51.6621 116.462C51.6415 114.897 51.6205 113.332 51.5991 111.766C51.5439 107.648 51.4945 103.53 51.4463 99.4119C51.396 95.2091 51.3403 91.0064 51.2851 86.8036C51.1776 78.5582 51.0761 70.3128 50.9785 62.0673C50.0616 61.5802 50.0616 61.5802 49.1262 61.0834C48.3208 60.6475 47.5153 60.2117 46.6855 59.7626C45.8886 59.3348 45.0918 58.907 44.2707 58.4662C37.0126 54.0366 34.0785 47.0519 31.9785 39.0673C31.0491 31.4991 33.3492 23.9888 37.666 17.7548C41.497 13.0234 46.2305 9.98328 51.9785 8.06727C60.5312 7.44171 68.6073 7.12105 75.9785 12.0673C78.791 14.5048 78.791 14.5048 80.9785 17.0673C81.7004 17.8716 82.4222 18.676 83.166 19.5048C88.1242 26.5147 87.7984 34.8258 86.9785 43.0673C84.9738 49.9136 81.0775 55.3167 74.9785 59.0673C72.6685 60.0573 70.3585 61.0473 67.9785 62.0673C67.4835 92.2623 67.4835 92.2623 66.9785 123.067C89.4185 123.067 111.858 123.067 134.978 123.067C134.978 118.777 134.978 114.487 134.978 110.067C137.187 97.442 143.584 87.4989 153.978 80.0673C161.483 75.9694 167.636 73.9482 176.174 73.9201C176.9 73.9164 177.626 73.9127 178.374 73.909C180.807 73.8979 183.241 73.8941 185.674 73.8903C187.418 73.884 189.163 73.8774 190.908 73.8704C196.64 73.8493 202.372 73.839 208.103 73.829C210.079 73.8249 212.055 73.8208 214.031 73.8166C223.319 73.7976 232.606 73.7834 241.893 73.775C252.598 73.7653 263.302 73.739 274.006 73.6985C282.289 73.6683 290.572 73.6536 298.855 73.6502C303.798 73.6479 308.74 73.639 313.682 73.6138C318.338 73.5904 322.993 73.5863 327.649 73.5965C329.35 73.597 331.051 73.5908 332.752 73.577C346.767 73.4697 358.411 75.0893 368.978 85.0673C375.988 92.0075 380.297 99.258 381.978 109.067C381.978 113.687 381.978 118.307 381.978 123.067C402.768 123.067 423.558 123.067 444.978 123.067C444.648 102.937 444.318 82.8073 443.978 62.0673C439.028 59.5923 439.028 59.5923 433.978 57.0673C427.231 50.4428 424.833 45.1267 424.541 35.6923C424.715 27.6733 426.164 22.3144 431.416 16.2548C432.262 15.5329 433.107 14.811 433.978 14.0673C434.783 13.3454 435.587 12.6235 436.416 11.8798C443.441 6.91103 451.72 7.34879 459.978 8.06727C463.07 8.94578 465.388 10.1895 467.978 12.0673C469.03 12.7685 470.082 13.4698 471.166 14.1923C482.352 24.0337 482.15 40.6924 474.436 52.411ZM459.728 466.755C456.312 464.658 453.985 464.138 449.978 464.067C445.338 465.705 442.411 467.763 439.978 472.067C439.114 476.84 439.523 480.172 441.728 484.505C445.146 488.397 446.668 488.94 451.853 489.442C456.213 489.304 458.705 488.036 461.978 485.067C466.197 478.063 465.449 472.635 459.728 466.755ZM461.978 27.0673C458.79 24.175 456.234 22.8195 451.978 22.5673C447.772 22.7929 445.189 24.3158 441.978 27.0673C439.427 31.2588 439.166 35.2809 439.978 40.0673C441.703 43.4383 444.111 45.5423 447.353 47.5048C451.457 48.3842 455.001 48.2367 458.689 46.0555C462.01 43.4879 463.912 41.1185 464.978 37.0673C464.978 33.2405 463.929 30.306 461.978 27.0673ZM359.291 96.6923C358.689 96.0864 358.087 95.4805 357.467 94.8563C348.503 88.4118 339.677 88.4875 329.051 88.5338C327.342 88.5268 325.633 88.518 323.923 88.5077C319.301 88.4853 314.68 88.4881 310.058 88.497C306.191 88.5022 302.324 88.4948 298.458 88.4876C289.332 88.4706 280.206 88.4741 271.081 88.4909C261.684 88.5078 252.287 88.4919 242.89 88.4596C234.804 88.4329 226.719 88.4257 218.634 88.4341C213.813 88.4391 208.991 88.4369 204.17 88.4164C199.635 88.3979 195.1 88.404 190.565 88.4286C188.907 88.4335 187.248 88.4301 185.59 88.4174C174.382 88.3383 165.78 89.5334 157.103 97.2548C150.338 104.836 149.39 113.406 149.471 123.212C149.464 124.398 149.458 125.583 149.452 126.805C149.439 130.07 149.443 133.334 149.456 136.599C149.465 140.13 149.451 143.661 149.44 147.192C149.422 154.099 149.426 161.006 149.437 167.913C149.446 173.528 149.448 179.144 149.443 184.759C149.443 185.56 149.442 186.361 149.441 187.186C149.44 188.812 149.439 190.439 149.437 192.066C149.426 207.303 149.439 222.54 149.461 237.777C149.479 250.838 149.475 263.899 149.457 276.961C149.436 292.145 149.427 307.329 149.439 322.514C149.441 324.134 149.442 325.755 149.443 327.375C149.444 328.172 149.444 328.97 149.445 329.791C149.449 335.397 149.443 341.003 149.433 346.609C149.422 353.445 149.425 360.281 149.446 367.117C149.457 370.601 149.461 374.086 149.448 377.571C149.437 381.355 149.451 385.138 149.471 388.922C149.462 390.015 149.453 391.107 149.444 392.233C149.525 400.264 151.155 406.985 155.768 413.653C156.676 414.539 156.676 414.539 157.603 415.442C158.194 416.048 158.784 416.654 159.393 417.278C168.63 423.669 178.13 423.648 188.928 423.601C190.627 423.608 192.327 423.617 194.026 423.627C198.617 423.649 203.208 423.646 207.799 423.637C211.641 423.632 215.483 423.64 219.324 423.647C228.391 423.664 237.458 423.66 246.524 423.644C255.86 423.627 265.195 423.643 274.53 423.675C282.564 423.702 290.598 423.709 298.633 423.7C303.423 423.695 308.213 423.698 313.003 423.718C317.508 423.737 322.012 423.73 326.516 423.706C328.164 423.701 329.811 423.704 331.458 423.717C342.631 423.797 351.206 422.577 359.853 414.88C366.619 407.299 367.567 398.729 367.486 388.922C367.493 387.737 367.499 386.551 367.505 385.329C367.518 382.065 367.514 378.8 367.501 375.536C367.492 372.005 367.506 368.474 367.517 364.943C367.535 358.036 367.531 351.129 367.52 344.222C367.511 338.606 367.509 332.991 367.514 327.375C367.514 326.574 367.515 325.774 367.516 324.949C367.517 323.322 367.518 321.696 367.519 320.069C367.531 304.832 367.518 289.595 367.496 274.358C367.478 261.296 367.482 248.235 367.5 235.174C367.521 219.989 367.53 204.805 367.518 189.621C367.516 188 367.515 186.38 367.514 184.759C367.513 183.962 367.513 183.165 367.512 182.344C367.508 176.738 367.514 171.132 367.524 165.526C367.535 158.69 367.532 151.854 367.511 145.018C367.5 141.533 367.496 138.048 367.509 134.564C367.52 130.779 367.506 126.996 367.486 123.212C367.495 122.12 367.504 121.027 367.513 119.902C367.426 111.317 365.72 102.865 359.291 96.6923ZM66.2285 23.6923C61.1282 22.2755 57.3729 22.4095 52.666 24.6298C49.404 27.5883 48.2143 29.8509 46.9785 34.0673C46.9785 38.2116 47.8521 39.8847 50.2285 43.3173C52.9401 46.0289 54.2756 47.2738 57.9785 48.0673C64.0841 47.9563 66.7702 46.1754 70.9785 42.0673C74.2967 35.4309 71.8736 28.1277 66.2285 23.6923ZM65.9785 465.067C62.1725 463.668 58.8428 463.51 54.9511 464.673C51.3747 466.404 50.0433 467.958 47.9785 471.442C46.6252 476.348 47.1369 479.163 49.166 483.755C52.1127 487.514 55.31 488.824 59.9785 489.505C64.6227 488.827 67.4352 486.456 70.8535 483.38C74.2613 476.375 72.3196 469.472 65.9785 465.067Z" fill="white"/>
<path d="M255.875 153.625C257.142 153.601 258.409 153.576 259.715 153.551C271.343 153.514 271.343 153.514 276 158C278.246 161.449 279.147 164.577 279.875 168.562C280.755 172.983 282.43 175.144 286 178C289.119 179.559 291.545 179.283 295 179C297.476 177.74 299.692 176.503 302 175C306.125 172.455 309.051 171.424 313.938 172.312C322.448 175.149 331.423 184.524 335.766 192.066C337.333 195.79 337.705 199.055 337 203C335.921 205.513 334.509 207.725 333 210C330.846 213.566 329.989 215.367 330.062 219.562C331.12 223.44 332.192 225.146 335 228C338.296 229.311 338.296 229.311 341.938 230.062C346.949 231.226 350.325 232.311 354 236C356.776 241.657 356.33 247.264 356.312 253.438C356.329 254.557 356.345 255.677 356.361 256.83C356.367 267.165 356.367 267.165 353 272C349.466 275.103 346.473 276.217 341.938 277C337.599 277.776 334.902 278.463 332 282C330.331 285.76 329.44 289.178 330.672 293.188C332.132 296.153 333.856 298.794 335.75 301.5C337.485 304.97 337.823 308.254 337 312C334.395 317.297 331.281 321.164 327.062 325.25C326.55 325.766 326.038 326.281 325.51 326.812C320.428 331.823 316.261 334.75 309 335C305.155 333.718 302.312 332.232 299.062 329.812C295.195 327.524 292.39 327.126 288 328C283.918 330.116 281.734 331.78 280 336C279.665 337.637 279.375 339.285 279.125 340.938C278.31 345.262 277.286 347.907 274 351C268.698 354.366 262.176 353.369 256.125 353.375C254.858 353.399 253.591 353.424 252.285 353.449C240.657 353.486 240.657 353.486 236 349C233.754 345.551 232.853 342.423 232.125 338.438C231.245 334.017 229.57 331.856 226 329C222.717 327.358 219.534 327.334 216 328C213.588 329.38 211.41 330.957 209.16 332.586C206.056 334.618 203.69 335.068 200 335C189.899 332.061 182.367 322.97 176 315C174.756 311.267 174.47 307.877 175 304C176.26 301.523 177.515 299.32 179 297C181.166 292.957 182.131 290.952 181.5 286.375C179.72 282.369 178.579 280.577 175 278C171.963 277.104 168.913 276.418 165.82 275.738C162.374 274.836 160.361 273.675 158 271C155.254 265.315 155.67 259.755 155.688 253.562C155.671 252.443 155.655 251.323 155.639 250.17C155.633 239.85 155.633 239.85 159 235C162.765 231.621 166.296 230.621 171.125 229.562C174.924 228.687 176.693 228.264 179.688 225.688C181.208 222.574 181.93 220.481 182 217C180.917 213.865 179.69 211.084 177.906 208.281C174.963 203.657 174.08 200.31 175 195C177.585 189.8 180.617 185.861 184.75 181.812C185.281 181.291 185.812 180.77 186.358 180.234C190.703 176.083 194.73 172.363 201.02 171.828C205.764 172.082 208.826 173.877 212.457 176.844C216.025 179.517 219.727 179.362 224 179C228.046 176.863 230.278 175.21 232 171C232.335 169.363 232.625 167.715 232.875 166.062C233.69 161.738 234.714 159.093 238 156C243.302 152.634 249.824 153.631 255.875 153.625ZM248 169C247.443 171.475 247.443 171.475 246.875 174C244.715 181.781 241.432 186.864 234.375 190.937C227.341 194.578 219.348 195.269 211.613 193.434C207.758 192.031 204.534 190.12 201 188C197.7 191.3 194.4 194.6 191 198C192.719 202.698 192.719 202.698 194.563 205.562C197.731 213.138 197.756 221.048 195.004 228.75C191.944 235.607 187.819 239.796 181 243C177.687 244.177 174.405 245.101 171 246C171 250.95 171 255.9 171 261C172.815 261.536 174.63 262.072 176.5 262.625C184.365 265.293 189.814 268.296 193.938 275.688C197.532 283.764 197.906 291.698 195 300C194.273 301.263 193.523 302.514 192.75 303.75C192.173 304.822 191.595 305.895 191 307C192.151 310.525 194.502 312.711 197.125 315.25C197.849 315.956 198.574 316.663 199.32 317.391C200.152 318.187 200.152 318.187 201 319C201.603 318.651 202.207 318.301 202.828 317.941C203.627 317.486 204.427 317.031 205.25 316.562C206.039 316.11 206.828 315.658 207.641 315.191C214.059 311.95 221.964 311.926 228.832 313.754C237.58 317.098 242.184 321.463 246 330C246.856 332.669 247.449 335.244 248 338C253.28 338 258.56 338 264 338C264.557 335.525 264.557 335.525 265.125 333C267.285 325.219 270.568 320.136 277.625 316.062C284.841 312.328 293.046 311.593 300.902 313.824C304.562 315.27 307.72 316.813 311 319C314.3 315.7 317.6 312.4 321 309C319.281 304.302 319.281 304.302 317.438 301.438C314.3 293.935 314.191 285.955 316.938 278.316C320.673 270.172 325.661 266.159 334 263C337.465 262.01 337.465 262.01 341 261C341 256.05 341 251.1 341 246C339.164 245.443 337.329 244.886 335.438 244.312C327.395 241.597 322.236 238.59 318.004 231.09C314.496 223.788 314.487 216.874 316 209C316.899 206.757 317.894 204.773 319.16 202.719C320.293 200.72 320.293 200.72 320 197C318.032 194.547 318.032 194.547 315.5 192.25C314.665 191.451 313.829 190.652 312.969 189.828C312.319 189.225 311.669 188.622 311 188C310.397 188.349 309.793 188.699 309.172 189.059C308.373 189.514 307.573 189.969 306.75 190.437C305.961 190.89 305.172 191.342 304.359 191.809C297.941 195.05 290.036 195.074 283.168 193.246C274.42 189.902 269.816 185.537 266 177C265.144 174.331 264.551 171.756 264 169C258.72 169 253.44 169 248 169Z" fill="white"/>
<path d="M285.648 210.34C297.156 218.464 304.841 230.044 307.578 243.934C309.742 259.664 306.062 273.767 296.875 286.625C289.131 296.091 277.918 302.41 266 305C248.635 306.464 234.961 303.435 221 292.691C211.402 284.535 205.692 272.3 204 260C202.941 244.316 206.933 230.389 216.934 218.164C235.362 198.865 263.494 196.674 285.648 210.34ZM227 230C221.257 237.975 217.633 248.134 219 258C221.385 269.402 226.145 278.07 235.863 284.715C244.952 290.181 253.598 291.156 264 290C273.275 287.673 280.955 282.617 286.559 274.836C291.949 265.783 294.515 256.24 292.344 245.863C289.067 233.702 282.626 225.989 271.832 219.746C256.245 212.253 238.123 217.347 227 230Z" fill="white"/>
</svg>
